<mxfile host="app.diagrams.net" modified="2022-02-14T08:33:40.311Z" agent="5.0 (Macintosh; Intel Mac OS X 10_15_7) AppleWebKit/537.36 (KHTML, like Gecko) Chrome/96.0.4664.110 Safari/537.36" etag="Pd-ZVhED3W9Kg3idhOjB" version="16.2.7" type="github">
  <diagram id="Qt-TOWQeUI0m6x63txDD" name="第 1 页">
    <mxGraphModel dx="946" dy="613" grid="1" gridSize="10" guides="1" tooltips="1" connect="1" arrows="1" fold="1" page="1" pageScale="1" pageWidth="827" pageHeight="1169" math="0" shadow="0">
      <root>
        <mxCell id="0" />
        <mxCell id="1" parent="0" />
        <mxCell id="Iy-mZm33ZJ7tI7_FkZ4P-1" value="" style="rounded=0;whiteSpace=wrap;html=1;" vertex="1" parent="1">
          <mxGeometry x="190" y="180" width="20" height="410" as="geometry" />
        </mxCell>
        <mxCell id="Iy-mZm33ZJ7tI7_FkZ4P-2" value="" style="rounded=0;whiteSpace=wrap;html=1;" vertex="1" parent="1">
          <mxGeometry x="490" y="180" width="20" height="410" as="geometry" />
        </mxCell>
        <mxCell id="Iy-mZm33ZJ7tI7_FkZ4P-3" value="pilot" style="text;html=1;align=center;verticalAlign=middle;resizable=0;points=[];autosize=1;strokeColor=none;fillColor=none;" vertex="1" parent="1">
          <mxGeometry x="180" y="160" width="40" height="20" as="geometry" />
        </mxCell>
        <mxCell id="Iy-mZm33ZJ7tI7_FkZ4P-4" value="api server" style="text;html=1;align=center;verticalAlign=middle;resizable=0;points=[];autosize=1;strokeColor=none;fillColor=none;" vertex="1" parent="1">
          <mxGeometry x="465" y="160" width="70" height="20" as="geometry" />
        </mxCell>
        <mxCell id="Iy-mZm33ZJ7tI7_FkZ4P-5" value="" style="rounded=0;whiteSpace=wrap;html=1;" vertex="1" parent="1">
          <mxGeometry x="340" y="180" width="20" height="410" as="geometry" />
        </mxCell>
        <mxCell id="Iy-mZm33ZJ7tI7_FkZ4P-6" value="zk" style="text;html=1;align=center;verticalAlign=middle;resizable=0;points=[];autosize=1;strokeColor=none;fillColor=none;" vertex="1" parent="1">
          <mxGeometry x="335" y="160" width="30" height="20" as="geometry" />
        </mxCell>
        <mxCell id="Iy-mZm33ZJ7tI7_FkZ4P-8" value="" style="rounded=0;whiteSpace=wrap;html=1;" vertex="1" parent="1">
          <mxGeometry x="70" y="180" width="20" height="410" as="geometry" />
        </mxCell>
        <mxCell id="Iy-mZm33ZJ7tI7_FkZ4P-9" value="business" style="text;html=1;align=center;verticalAlign=middle;resizable=0;points=[];autosize=1;strokeColor=none;fillColor=none;" vertex="1" parent="1">
          <mxGeometry x="50" y="160" width="60" height="20" as="geometry" />
        </mxCell>
        <mxCell id="Iy-mZm33ZJ7tI7_FkZ4P-10" value="" style="endArrow=classic;html=1;rounded=0;exitX=1.15;exitY=0.041;exitDx=0;exitDy=0;exitPerimeter=0;entryX=-0.1;entryY=0.09;entryDx=0;entryDy=0;entryPerimeter=0;" edge="1" parent="1" source="Iy-mZm33ZJ7tI7_FkZ4P-8" target="Iy-mZm33ZJ7tI7_FkZ4P-5">
          <mxGeometry width="50" height="50" relative="1" as="geometry">
            <mxPoint x="250" y="340" as="sourcePoint" />
            <mxPoint x="300" y="290" as="targetPoint" />
          </mxGeometry>
        </mxCell>
        <mxCell id="Iy-mZm33ZJ7tI7_FkZ4P-11" value="register" style="edgeLabel;html=1;align=center;verticalAlign=middle;resizable=0;points=[];" vertex="1" connectable="0" parent="Iy-mZm33ZJ7tI7_FkZ4P-10">
          <mxGeometry x="0.0859" relative="1" as="geometry">
            <mxPoint as="offset" />
          </mxGeometry>
        </mxCell>
        <mxCell id="Iy-mZm33ZJ7tI7_FkZ4P-12" value="watch new service" style="endArrow=classic;html=1;rounded=0;exitX=1.05;exitY=0.024;exitDx=0;exitDy=0;exitPerimeter=0;entryX=-0.2;entryY=0.051;entryDx=0;entryDy=0;entryPerimeter=0;" edge="1" parent="1" source="Iy-mZm33ZJ7tI7_FkZ4P-1" target="Iy-mZm33ZJ7tI7_FkZ4P-5">
          <mxGeometry width="50" height="50" relative="1" as="geometry">
            <mxPoint x="250" y="340" as="sourcePoint" />
            <mxPoint x="300" y="290" as="targetPoint" />
          </mxGeometry>
        </mxCell>
        <mxCell id="Iy-mZm33ZJ7tI7_FkZ4P-13" value="new service create" style="endArrow=classic;html=1;rounded=0;exitX=-0.15;exitY=0.134;exitDx=0;exitDy=0;exitPerimeter=0;entryX=1.2;entryY=0.202;entryDx=0;entryDy=0;entryPerimeter=0;" edge="1" parent="1" source="Iy-mZm33ZJ7tI7_FkZ4P-5" target="Iy-mZm33ZJ7tI7_FkZ4P-1">
          <mxGeometry width="50" height="50" relative="1" as="geometry">
            <mxPoint x="250" y="340" as="sourcePoint" />
            <mxPoint x="300" y="290" as="targetPoint" />
          </mxGeometry>
        </mxCell>
        <mxCell id="Iy-mZm33ZJ7tI7_FkZ4P-14" value="frist instance create" style="text;html=1;align=center;verticalAlign=middle;resizable=0;points=[];autosize=1;strokeColor=none;fillColor=none;" vertex="1" parent="1">
          <mxGeometry x="170" y="610" width="120" height="20" as="geometry" />
        </mxCell>
        <mxCell id="Iy-mZm33ZJ7tI7_FkZ4P-15" value="new instance create" style="endArrow=classic;html=1;rounded=0;exitX=-0.1;exitY=0.205;exitDx=0;exitDy=0;exitPerimeter=0;entryX=1.15;entryY=0.285;entryDx=0;entryDy=0;entryPerimeter=0;" edge="1" parent="1" source="Iy-mZm33ZJ7tI7_FkZ4P-5" target="Iy-mZm33ZJ7tI7_FkZ4P-1">
          <mxGeometry width="50" height="50" relative="1" as="geometry">
            <mxPoint x="250" y="430" as="sourcePoint" />
            <mxPoint x="300" y="380" as="targetPoint" />
          </mxGeometry>
        </mxCell>
        <mxCell id="Iy-mZm33ZJ7tI7_FkZ4P-16" value="add new DR,VS" style="endArrow=classic;html=1;rounded=0;exitX=0.95;exitY=0.344;exitDx=0;exitDy=0;exitPerimeter=0;entryX=1;entryY=0.473;entryDx=0;entryDy=0;entryPerimeter=0;elbow=vertical;" edge="1" parent="1" source="Iy-mZm33ZJ7tI7_FkZ4P-1" target="Iy-mZm33ZJ7tI7_FkZ4P-1">
          <mxGeometry width="50" height="50" relative="1" as="geometry">
            <mxPoint x="250" y="430" as="sourcePoint" />
            <mxPoint x="480" y="350" as="targetPoint" />
            <Array as="points">
              <mxPoint x="280" y="321" />
              <mxPoint x="280" y="350" />
              <mxPoint x="280" y="374" />
            </Array>
          </mxGeometry>
        </mxCell>
        <mxCell id="Iy-mZm33ZJ7tI7_FkZ4P-17" value="routing update" style="endArrow=classic;html=1;rounded=0;exitX=-0.1;exitY=0.563;exitDx=0;exitDy=0;exitPerimeter=0;entryX=1.05;entryY=0.62;entryDx=0;entryDy=0;entryPerimeter=0;" edge="1" parent="1" source="Iy-mZm33ZJ7tI7_FkZ4P-1" target="Iy-mZm33ZJ7tI7_FkZ4P-8">
          <mxGeometry width="50" height="50" relative="1" as="geometry">
            <mxPoint x="250" y="430" as="sourcePoint" />
            <mxPoint x="300" y="380" as="targetPoint" />
          </mxGeometry>
        </mxCell>
      </root>
    </mxGraphModel>
  </diagram>
</mxfile>
